<svg xmlns="http://www.w3.org/2000/svg" xmlns:xlink="http://www.w3.org/1999/xlink" viewBox="0 0 150 150"><defs><style>.a{fill:none;}.b{clip-path:url(#a);}.c{fill:#2f6be5;}.d{fill:url(#b);}.e{fill:url(#c);}</style><clipPath id="a"><path class="a" d="M56.25,150H75a75,75,0,0,1,75-75V56.25A93.75,93.75,0,0,0,56.25,150ZM150,131.25v9.36a9.39,9.39,0,0,1-9.39,9.39h-9.36A18.75,18.75,0,0,1,150,131.25ZM0,75A75,75,0,0,0,75,0H93.75A93.75,93.75,0,0,1,0,93.75ZM150,93.75V112.5A37.5,37.5,0,0,0,112.5,150H93.75A56.25,56.25,0,0,1,150,93.75ZM112.5,0h28.11A9.39,9.39,0,0,1,150,9.39V37.5a112.064,112.064,0,0,0-48.436,10.936A112.064,112.064,0,0,0,112.5,0ZM0,18.75V9.39A9.39,9.39,0,0,1,9.39,0h9.36A18.75,18.75,0,0,1,0,18.75ZM37.5,150H9.39A9.39,9.39,0,0,1,0,140.61V112.5a112.064,112.064,0,0,0,48.436-10.936A112.064,112.064,0,0,0,37.5,150ZM0,56.25V37.5A37.5,37.5,0,0,0,37.5,0H56.25A56.25,56.25,0,0,1,0,56.25Z"/></clipPath><radialGradient id="b" cx="150.48" cy="150.228" r="212.939" gradientUnits="userSpaceOnUse"><stop offset="0" stop-color="#2c49f8"/><stop offset="0.243" stop-color="#2c4af8" stop-opacity="0.99"/><stop offset="0.381" stop-color="#2d4ef7" stop-opacity="0.957"/><stop offset="0.492" stop-color="#2e55f5" stop-opacity="0.901"/><stop offset="0.59" stop-color="#2f5ff3" stop-opacity="0.821"/><stop offset="0.679" stop-color="#316bf0" stop-opacity="0.718"/><stop offset="0.761" stop-color="#337bec" stop-opacity="0.59"/><stop offset="0.838" stop-color="#358de8" stop-opacity="0.439"/><stop offset="0.911" stop-color="#38a3e3" stop-opacity="0.263"/><stop offset="0.978" stop-color="#3bbadd" stop-opacity="0.07"/><stop offset="1" stop-color="#3cc3db" stop-opacity="0"/></radialGradient><radialGradient id="c" cx="0.023" cy="-0.228" r="212.939" gradientUnits="userSpaceOnUse"><stop offset="0" stop-color="#3cc3db"/><stop offset="1" stop-color="#2c49f8" stop-opacity="0"/></radialGradient></defs><title>Asset 1</title><g class="b"><rect class="c" width="150" height="150"/><rect class="d" width="150" height="150"/><rect class="e" width="150" height="150"/></g></svg>