<?xml version="1.0" encoding="iso-8859-1"?>
<!-- Generator: Adobe Illustrator 19.0.0, SVG Export Plug-In . SVG Version: 6.00 Build 0)  -->
<svg version="1.1" id="Layer_1" xmlns="http://www.w3.org/2000/svg" xmlns:xlink="http://www.w3.org/1999/xlink" x="0px" y="0px"
	 viewBox="0 0 508 508" style="enable-background:new 0 0 508 508;" xml:space="preserve">
<circle style="fill:#F3756F;" cx="254" cy="254" r="254"/>
<polygon style="fill:#E7E8E9;" points="201.6,127.2 144.6,184.2 144.6,380.6 350.4,380.6 350.4,127.2 "/>
<g>
	<rect x="179.4" y="211.4" style="fill:#BBC2C6;" width="136.4" height="10.8"/>
	<rect x="179.4" y="243" style="fill:#BBC2C6;" width="136.4" height="10.8"/>
	<rect x="179.4" y="274.6" style="fill:#BBC2C6;" width="136.4" height="10.8"/>
	<rect x="179.4" y="306.4" style="fill:#BBC2C6;" width="136.4" height="10.8"/>
	<rect x="179.4" y="338" style="fill:#BBC2C6;" width="136.4" height="10.8"/>
	<polygon style="fill:#BBC2C6;" points="201.6,184.2 201.6,127.2 144.6,184.2 	"/>
</g>
<circle style="fill:#2E4555;" cx="273.4" cy="266.4" r="69.8"/>
<circle style="fill:#6DB8E0;" cx="273.4" cy="266.4" r="53.6"/>
<rect x="319.027" y="309.752" transform="matrix(-0.7071 0.7071 -0.7071 -0.7071 787.3073 316.39)" style="fill:#2E4555;" width="18.2" height="23"/>
<path style="fill:#0B2C48;" d="M388.2,366.6l-14.8,14.8c-1,1-2.8,1-4,0l-44-44l18.8-18.8l44,44C389.4,363.8,389.4,365.6,388.2,366.6
	z"/>
<g>
</g>
<g>
</g>
<g>
</g>
<g>
</g>
<g>
</g>
<g>
</g>
<g>
</g>
<g>
</g>
<g>
</g>
<g>
</g>
<g>
</g>
<g>
</g>
<g>
</g>
<g>
</g>
<g>
</g>
</svg>
