<?xml version="1.0" encoding="iso-8859-1"?>
<!-- Generator: Adobe Illustrator 19.0.0, SVG Export Plug-In . SVG Version: 6.00 Build 0)  -->
<svg version="1.1" id="Layer_1" xmlns="http://www.w3.org/2000/svg" xmlns:xlink="http://www.w3.org/1999/xlink" x="0px" y="0px"
	 viewBox="0 0 508 508" style="enable-background:new 0 0 508 508;" xml:space="preserve">
<circle style="fill:#D6E1E2;" cx="254" cy="254" r="254"/>
<g>
	<polygon style="fill:#0B2C48;" points="189,310.2 161.8,310.2 161.8,303.4 182.2,303.4 182.2,268.8 189,268.8 	"/>
	<polygon style="fill:#0B2C48;" points="240.6,310.2 213.2,310.2 213.2,268.8 220,268.8 220,303.4 240.6,303.4 	"/>
</g>
<rect x="135" y="292.8" style="fill:#BF4028;" width="32.4" height="32.4"/>
<rect x="237.8" y="292.8" style="fill:#FFCA0D;" width="32.4" height="32.4"/>
<g>
	<polygon style="fill:#0B2C48;" points="363.8,371.4 357,371.4 357,350.6 250.6,350.6 250.6,325.2 257.4,325.2 257.4,343.8 
		363.8,343.8 	"/>
	<rect x="294.2" y="347.2" style="fill:#0B2C48;" width="6.8" height="24.2"/>
</g>
<rect x="281.6" y="368.8" style="fill:#1AA386;" width="32.4" height="32.4"/>
<rect x="344.2" y="368.8" style="fill:#27A4D5;" width="32.4" height="32.4"/>
<path style="fill:#45BBE4;" d="M339.8,161.4c-9.2,0-18,2.2-25.8,6.2c0.4-2,0.6-4,0.6-6.2c0-18.2-14.6-32.8-32.8-32.8
	c-7,0-13.4,2.2-18.6,5.8c-11.8-16.8-31.2-27.6-53.2-27.6c-34,0-61.8,26-64.8,59.4c-20.6,8.8-35.2,29.4-35.2,53.4c0,32,26,58,58,58
	h171.8c32,0,58-26,58-58C397.8,187.4,372,161.4,339.8,161.4z"/>
<g>
</g>
<g>
</g>
<g>
</g>
<g>
</g>
<g>
</g>
<g>
</g>
<g>
</g>
<g>
</g>
<g>
</g>
<g>
</g>
<g>
</g>
<g>
</g>
<g>
</g>
<g>
</g>
<g>
</g>
</svg>
