<?xml version="1.0" encoding="iso-8859-1"?>
<!-- Generator: Adobe Illustrator 19.0.0, SVG Export Plug-In . SVG Version: 6.00 Build 0)  -->
<svg version="1.1" id="Layer_1" xmlns="http://www.w3.org/2000/svg" xmlns:xlink="http://www.w3.org/1999/xlink" x="0px" y="0px"
	 viewBox="0 0 508 508" style="enable-background:new 0 0 508 508;" xml:space="preserve">
<circle style="fill:#FFD778;" cx="254" cy="254" r="254"/>
<g>
	<path style="fill:#2E4555;" d="M340.4,149.8c-3-2.4-5.6-5.6-7.2-9.4L278.6,181c2.6,2.8,5,6,7,9.4L340.4,149.8z"/>
	<path style="fill:#2E4555;" d="M254.6,311.4c3.8-1,7.6-1.6,11.6-1.8l-8.8-43.8c-3.6,1.2-7.6,2.2-11.4,2.6L254.6,311.4z"/>
	<path style="fill:#2E4555;" d="M235.6,136.2c-2.8,1-5.6,1.8-8.8,1.8c-1,0-2,0-2.8-0.2l4.2,28.6c3.8-1,7.6-1.4,11.6-1.6L235.6,136.2
		z"/>
	<path style="fill:#2E4555;" d="M290.8,230.8c-1,3.8-2.6,7.4-4.4,10.8L336,263c1-3.8,2.4-7.6,4.2-11L290.8,230.8z"/>
	<path style="fill:#2E4555;" d="M163.4,241.8c2.2,3.2,3.8,6.8,5,10.6l26.6-11c-1.8-3.4-3.4-7-4.4-10.8L163.4,241.8z"/>
</g>
<path style="fill:#BF4028;" d="M292.8,216.8c0-9.6-2.6-18.6-7.2-26.2c-2-3.4-4.4-6.6-7-9.4c-9.4-10-23-16.4-37.8-16.4
	c-0.4,0-0.6,0-1,0c-4,0-8,0.6-11.6,1.6c-22.6,5.6-39.4,26-39.4,50.4c0,4.8,0.6,9.4,1.8,13.8c1,3.8,2.6,7.4,4.4,10.8
	c8.8,16.2,26,27.2,45.8,27.2c1.8,0,3.6,0,5.2-0.2c4-0.4,7.8-1.2,11.4-2.6c12.4-4.2,22.6-13,28.8-24.2c1.8-3.4,3.4-7,4.4-10.8
	C292,226.4,292.8,221.6,292.8,216.8z"/>
<path style="fill:#1AA386;" d="M340.4,149.8c4.2,3.2,9.4,5.2,15,5.2c13.2,0,24-10.8,24-24s-10.8-24-24-24s-24,10.8-24,24
	c0,3.4,0.6,6.6,2,9.4C334.8,144.2,337.2,147.4,340.4,149.8z"/>
<path style="fill:#E65336;" d="M235.6,136.2c8.6-3.4,14.8-12,14.8-21.8c0-13-10.6-23.6-23.6-23.6s-23.6,10.6-23.6,23.6
	c0,12,9,22,20.6,23.4c1,0.2,2,0.2,2.8,0.2C229.8,137.8,232.8,137.2,235.6,136.2z"/>
<path style="fill:#FFCA0D;" d="M375.8,231.4c-15.2,0-28.4,8.4-35.4,20.6c-2,3.4-3.4,7-4.2,11c-0.8,3-1.2,6.2-1.2,9.4
	c0,22.6,18.4,40.8,40.8,40.8c22.6,0,40.8-18.4,40.8-40.8C416.6,249.8,398.4,231.4,375.8,231.4z"/>
<path style="fill:#1F84AB;" d="M214.6,363.4c0,29.8,24,53.8,53.8,53.8s53.8-24,53.8-53.8s-24-53.8-53.8-53.8c-0.8,0-1.4,0-2.2,0
	c-4,0.2-8,0.8-11.6,1.8C231.6,317.4,214.6,338.4,214.6,363.4z"/>
<path style="fill:#0B2C48;" d="M130.8,224.2c-21.8,0-39.4,17.6-39.4,39.4S109,303,130.8,303s39.4-17.6,39.4-39.4
	c0-4-0.6-7.6-1.6-11.2c-1.2-3.8-2.8-7.4-5-10.6C156.4,231.2,144.4,224.2,130.8,224.2z"/>
<g>
</g>
<g>
</g>
<g>
</g>
<g>
</g>
<g>
</g>
<g>
</g>
<g>
</g>
<g>
</g>
<g>
</g>
<g>
</g>
<g>
</g>
<g>
</g>
<g>
</g>
<g>
</g>
<g>
</g>
</svg>
