<?xml version="1.0" encoding="iso-8859-1"?>
<!-- Generator: Adobe Illustrator 19.0.0, SVG Export Plug-In . SVG Version: 6.00 Build 0)  -->
<svg version="1.1" id="Layer_1" xmlns="http://www.w3.org/2000/svg" xmlns:xlink="http://www.w3.org/1999/xlink" x="0px" y="0px"
	 viewBox="0 0 508 508" style="enable-background:new 0 0 508 508;" xml:space="preserve">
<circle style="fill:#39B39B;" cx="254" cy="254" r="254"/>
<rect x="146" y="108.4" style="fill:#E7E8E9;" width="214.6" height="287.2"/>
<path style="fill:#2E4555;" d="M192.4,182.8l-4.2,15.2h-14l18.2-59.4H210l18.4,59.4H214l-4.6-15.2H192.4z M207.6,172.8l-3.8-12.6
	c-1-3.6-2.2-8-3-11.4h-0.2c-0.8,3.6-1.8,8-2.8,11.4l-3.6,12.6H207.6z"/>
<g>
	<rect x="258" y="138.2" style="fill:#BBC2C6;" width="74.4" height="7.4"/>
	<rect x="258" y="164.6" style="fill:#BBC2C6;" width="74.4" height="7.4"/>
	<rect x="258" y="191.2" style="fill:#BBC2C6;" width="74.4" height="7.4"/>
	<rect x="174.4" y="217.6" style="fill:#BBC2C6;" width="158.2" height="7.4"/>
	<rect x="174.4" y="245.8" style="fill:#BBC2C6;" width="158.2" height="7.4"/>
	<rect x="174.4" y="274" style="fill:#BBC2C6;" width="158.2" height="7.4"/>
	<rect x="174.4" y="302.2" style="fill:#BBC2C6;" width="158.2" height="7.4"/>
	<rect x="174.4" y="330.4" style="fill:#BBC2C6;" width="158.2" height="7.4"/>
	<rect x="174.4" y="358.6" style="fill:#BBC2C6;" width="158.2" height="7.4"/>
</g>
<rect x="304.807" y="272.25" transform="matrix(-0.6883 -0.7254 0.7254 -0.6883 281.0973 806.4768)" style="fill:#F79820;" width="18" height="141.197"/>
<rect x="306.591" y="267.732" transform="matrix(-0.6883 -0.7254 0.7254 -0.6883 276.9182 795.6445)" style="fill:#FDE52F;" width="5.6" height="141.197"/>
<polygon style="fill:#F8CC14;" points="260.2,389 264.4,393.4 366.8,296.2 362.6,291.8 "/>
<polygon style="fill:#DEBEA1;" points="268.8,398 256.4,384.8 245.4,407.4 "/>
<polygon style="fill:#F2D8B8;" points="264.4,393.4 256.4,384.8 245.4,407.4 "/>
<polygon style="fill:#FAF7C5;" points="260.2,389 256.4,384.8 245.4,407.4 "/>
<polygon style="fill:#3A464F;" points="249,400 245.4,407.4 253,404.4 "/>
<path style="fill:#E76266;" d="M371,300.8l6-5.6c1-1,1-2.8-0.2-4l-8.2-8.8c-1.2-1.2-3-1.4-4-0.4l-6,5.6L371,300.8z"/>
<path style="fill:#A22263;" d="M377,291.2l-6.6-6.8l-8,7.6l8.6,9l6-5.6C378.2,294.2,378,292.4,377,291.2z"/>
<path style="fill:#81224A;" d="M377,291.2l-2.2-2.4l-8,7.6l4.4,4.6l6-5.6C378.2,294.2,378,292.4,377,291.2z"/>
<g>
</g>
<g>
</g>
<g>
</g>
<g>
</g>
<g>
</g>
<g>
</g>
<g>
</g>
<g>
</g>
<g>
</g>
<g>
</g>
<g>
</g>
<g>
</g>
<g>
</g>
<g>
</g>
<g>
</g>
</svg>
