<?xml version="1.0" encoding="iso-8859-1"?>
<!-- Generator: Adobe Illustrator 19.0.0, SVG Export Plug-In . SVG Version: 6.00 Build 0)  -->
<svg version="1.1" id="Layer_1" xmlns="http://www.w3.org/2000/svg" xmlns:xlink="http://www.w3.org/1999/xlink" x="0px" y="0px"
	 viewBox="0 0 508 508" style="enable-background:new 0 0 508 508;" xml:space="preserve">
<circle style="fill:#E37D39;" cx="254" cy="254" r="254"/>
<g>
	<path style="fill:#0B2C48;" d="M123.8,199.8h260.6c0.6,0,1-0.4,1-1v-69c0-0.6-0.4-1-1-1H123.8c-0.6,0-1,0.4-1,1v68.8
		C122.8,199.2,123.2,199.8,123.8,199.8z"/>
	<path style="fill:#0B2C48;" d="M123.8,276.6h260.6c0.6,0,1-0.4,1-1v-68.8c0-0.6-0.4-1-1-1H123.8c-0.6,0-1,0.4-1,1v68.8
		C122.8,276,123.2,276.6,123.8,276.6z"/>
	<path style="fill:#0B2C48;" d="M123.8,353.2h260.6c0.6,0,1-0.4,1-1v-68.8c0-0.6-0.4-1-1-1H123.8c-0.6,0-1,0.4-1,1v68.8
		C122.8,352.8,123.2,353.2,123.8,353.2z"/>
</g>
<rect x="143.2" y="152" style="fill:#FFCA0D;" width="13.4" height="24.6"/>
<rect x="143.2" y="228.8" style="fill:#E15D4A;" width="13.4" height="24.6"/>
<rect x="143.2" y="305.6" style="fill:#6DB8E0;" width="13.4" height="24.6"/>
<g>
	<rect x="245.2" y="353.2" style="fill:#BBC2C6;" width="17.8" height="36"/>
	<rect x="179.6" y="389.2" style="fill:#BBC2C6;" width="65.4" height="17.8"/>
	<rect x="262.8" y="389.2" style="fill:#BBC2C6;" width="65.4" height="17.8"/>
</g>
<rect x="245.2" y="389.2" style="fill:#0B2C48;" width="17.8" height="17.8"/>
<g>
	<rect x="355" y="141.6" style="fill:#BBC2C6;" width="8.2" height="8.2"/>
	<rect x="336" y="141.6" style="fill:#BBC2C6;" width="8.2" height="8.2"/>
	<rect x="317" y="141.6" style="fill:#BBC2C6;" width="8.2" height="8.2"/>
	<rect x="298" y="141.6" style="fill:#BBC2C6;" width="8.2" height="8.2"/>
	<rect x="279" y="141.6" style="fill:#BBC2C6;" width="8.2" height="8.2"/>
	<rect x="355" y="160.2" style="fill:#BBC2C6;" width="8.2" height="8.2"/>
	<rect x="336" y="160.2" style="fill:#BBC2C6;" width="8.2" height="8.2"/>
	<rect x="317" y="160.2" style="fill:#BBC2C6;" width="8.2" height="8.2"/>
	<rect x="298" y="160.2" style="fill:#BBC2C6;" width="8.2" height="8.2"/>
	<rect x="279" y="160.2" style="fill:#BBC2C6;" width="8.2" height="8.2"/>
	<rect x="355" y="179" style="fill:#BBC2C6;" width="8.2" height="8.2"/>
	<rect x="336" y="179" style="fill:#BBC2C6;" width="8.2" height="8.2"/>
	<rect x="317" y="179" style="fill:#BBC2C6;" width="8.2" height="8.2"/>
	<rect x="298" y="179" style="fill:#BBC2C6;" width="8.2" height="8.2"/>
	<rect x="279" y="179" style="fill:#BBC2C6;" width="8.2" height="8.2"/>
	<rect x="355" y="218.2" style="fill:#BBC2C6;" width="8.2" height="8.2"/>
	<rect x="336" y="218.2" style="fill:#BBC2C6;" width="8.2" height="8.2"/>
	<rect x="317" y="218.2" style="fill:#BBC2C6;" width="8.2" height="8.2"/>
	<rect x="298" y="218.2" style="fill:#BBC2C6;" width="8.2" height="8.2"/>
	<rect x="279" y="218.2" style="fill:#BBC2C6;" width="8.2" height="8.2"/>
	<rect x="355" y="237" style="fill:#BBC2C6;" width="8.2" height="8.2"/>
	<rect x="336" y="237" style="fill:#BBC2C6;" width="8.2" height="8.2"/>
	<rect x="317" y="237" style="fill:#BBC2C6;" width="8.2" height="8.2"/>
	<rect x="298" y="237" style="fill:#BBC2C6;" width="8.2" height="8.2"/>
	<rect x="279" y="237" style="fill:#BBC2C6;" width="8.2" height="8.2"/>
	<rect x="355" y="255.6" style="fill:#BBC2C6;" width="8.2" height="8.2"/>
	<rect x="336" y="255.6" style="fill:#BBC2C6;" width="8.2" height="8.2"/>
	<rect x="317" y="255.6" style="fill:#BBC2C6;" width="8.2" height="8.2"/>
	<rect x="298" y="255.6" style="fill:#BBC2C6;" width="8.2" height="8.2"/>
	<rect x="279" y="255.6" style="fill:#BBC2C6;" width="8.2" height="8.2"/>
	<rect x="355" y="295" style="fill:#BBC2C6;" width="8.2" height="8.2"/>
	<rect x="336" y="295" style="fill:#BBC2C6;" width="8.2" height="8.2"/>
	<rect x="317" y="295" style="fill:#BBC2C6;" width="8.2" height="8.2"/>
	<rect x="298" y="295" style="fill:#BBC2C6;" width="8.2" height="8.2"/>
	<rect x="279" y="295" style="fill:#BBC2C6;" width="8.2" height="8.2"/>
	<rect x="355" y="313.6" style="fill:#BBC2C6;" width="8.2" height="8.2"/>
	<rect x="336" y="313.6" style="fill:#BBC2C6;" width="8.2" height="8.2"/>
	<rect x="317" y="313.6" style="fill:#BBC2C6;" width="8.2" height="8.2"/>
	<rect x="298" y="313.6" style="fill:#BBC2C6;" width="8.2" height="8.2"/>
	<rect x="279" y="313.6" style="fill:#BBC2C6;" width="8.2" height="8.2"/>
	<rect x="355" y="332.4" style="fill:#BBC2C6;" width="8.2" height="8.2"/>
	<rect x="336" y="332.4" style="fill:#BBC2C6;" width="8.2" height="8.2"/>
	<rect x="317" y="332.4" style="fill:#BBC2C6;" width="8.2" height="8.2"/>
	<rect x="298" y="332.4" style="fill:#BBC2C6;" width="8.2" height="8.2"/>
	<rect x="279" y="332.4" style="fill:#BBC2C6;" width="8.2" height="8.2"/>
</g>
<g>
</g>
<g>
</g>
<g>
</g>
<g>
</g>
<g>
</g>
<g>
</g>
<g>
</g>
<g>
</g>
<g>
</g>
<g>
</g>
<g>
</g>
<g>
</g>
<g>
</g>
<g>
</g>
<g>
</g>
</svg>
