<?xml version="1.0" encoding="iso-8859-1"?>
<!-- Generator: Adobe Illustrator 19.0.0, SVG Export Plug-In . SVG Version: 6.00 Build 0)  -->
<svg version="1.1" id="Layer_1" xmlns="http://www.w3.org/2000/svg" xmlns:xlink="http://www.w3.org/1999/xlink" x="0px" y="0px"
	 viewBox="0 0 508 508" style="enable-background:new 0 0 508 508;" xml:space="preserve">
<circle style="fill:#39B39B;" cx="254" cy="254" r="254"/>
<rect x="114.2" y="167.2" style="fill:#F7F8F9;" width="279.8" height="181.8"/>
<g>
	<polygon style="fill:#3F5064;" points="321.6,183.8 186.4,183.8 198.6,148.2 309.4,148.2 	"/>
	<circle style="fill:#3F5064;" cx="254" cy="134.6" r="19.2"/>
</g>
<circle style="fill:#FFCA0D;" cx="188.6" cy="233.4" r="24.6"/>
<g>
	<rect x="261.2" y="241.4" style="fill:#BBC2C6;" width="97.4" height="9.4"/>
	<rect x="261.2" y="274.2" style="fill:#BBC2C6;" width="97.4" height="9.4"/>
</g>
<g>
	
		<rect x="184.039" y="264.303" transform="matrix(-0.7073 0.7069 -0.7069 -0.7073 512.1546 325.7498)" style="fill:#E65336;" width="9.2" height="9.2"/>
	<polygon style="fill:#E65336;" points="188.6,267.8 182,292.6 188.6,305.4 195,292.6 	"/>
</g>
<path style="fill:#0B2C48;" d="M205.4,270.6L188.6,300l-17-29.4c-15.4,6-26.8,19.8-29.4,36.6h92.6
	C232.2,290.4,220.8,276.6,205.4,270.6z"/>
<g>
</g>
<g>
</g>
<g>
</g>
<g>
</g>
<g>
</g>
<g>
</g>
<g>
</g>
<g>
</g>
<g>
</g>
<g>
</g>
<g>
</g>
<g>
</g>
<g>
</g>
<g>
</g>
<g>
</g>
</svg>
