<?xml version="1.0" encoding="iso-8859-1"?>
<!-- Generator: Adobe Illustrator 19.0.0, SVG Export Plug-In . SVG Version: 6.00 Build 0)  -->
<svg version="1.1" id="Layer_1" xmlns="http://www.w3.org/2000/svg" xmlns:xlink="http://www.w3.org/1999/xlink" x="0px" y="0px"
	 viewBox="0 0 508 508" style="enable-background:new 0 0 508 508;" xml:space="preserve">
<circle style="fill:#E37D39;" cx="254" cy="254" r="254"/>
<path style="fill:#4F6673;" d="M232.8,211.4l3-12.4l-0.2-0.2c0.4-2.4,0.8-5,0.6-7.6c-0.2-21.2-17.4-38-38.6-37.8
	c-11,0.2-20.6,4.8-27.6,12.2L159.2,176c0.4,0,0.6,0,1,0C189.8,175.8,216,189.8,232.8,211.4z"/>
<path style="fill:#2C424F;" d="M210.8,301.4l22-90c-16.8-21.6-43-35.6-72.4-35.2c-0.4,0-0.6,0-1,0L100.8,233L210.8,301.4z"/>
<path style="fill:#4F6673;" d="M345.6,176.2c1.2,0,2.4,0.2,3.8,0.2l-13-12.2c-7-7.2-16.8-11.8-27.8-11.8
	c-21.2,0.2-38,17.4-37.8,38.6c0,2.6,0.4,5.2,0.8,7.6l-0.2,0.2l3.4,13C291,190.4,316.6,176.4,345.6,176.2z"/>
<path style="fill:#2C424F;" d="M407,230l-57.6-53.8c-1.2,0-2.4-0.2-3.8-0.2c-29,0.2-54.6,14.2-70.8,35.6l23.6,88.8L407,230z"/>
<circle style="fill:#0B2C48;" cx="358.8" cy="275.6" r="66"/>
<circle style="fill:#6DB8E0;" cx="358.8" cy="275.6" r="54.2"/>
<path style="fill:#EDF0F2;" d="M319.8,293.6c-0.4-33.2,26-60.4,59.2-61.4c-6.2-3-13.2-4.6-20.6-4.4c-26.6,0.2-47.8,22-47.6,48.6
	c0.2,11,4,21.2,10.4,29.2C320.4,301.6,319.8,297.6,319.8,293.6z"/>
<circle style="fill:#0B2C48;" cx="149.2" cy="277.8" r="66"/>
<circle style="fill:#6DB8E0;" cx="149.2" cy="277.8" r="54.2"/>
<path style="fill:#EDF0F2;" d="M110.2,295.6c-0.4-33.2,26-60.4,59.2-61.4c-6.2-3-13.2-4.6-20.6-4.4c-26.6,0.2-47.8,22-47.6,48.6
	c0.2,11,4,21.2,10.4,29.2C110.8,303.6,110.2,299.6,110.2,295.6z"/>
<polygon style="fill:#3E5967;" points="279.2,200 253.8,200 228.4,200 214.8,236.6 253.8,245.4 292.8,236.6 "/>
<rect x="215.009" y="236.212" transform="matrix(-1 0.0099 -0.0099 -1 510.1613 514.5089)" style="fill:#0B2C48;" width="77.604" height="44.602"/>
<circle style="fill:#2C424F;" cx="253.8" cy="258.6" r="17"/>
<circle style="fill:#677B83;" cx="253.8" cy="258.6" r="12.8"/>
<g>
</g>
<g>
</g>
<g>
</g>
<g>
</g>
<g>
</g>
<g>
</g>
<g>
</g>
<g>
</g>
<g>
</g>
<g>
</g>
<g>
</g>
<g>
</g>
<g>
</g>
<g>
</g>
<g>
</g>
</svg>
