<?xml version="1.0" encoding="iso-8859-1"?>
<!-- Generator: Adobe Illustrator 19.0.0, SVG Export Plug-In . SVG Version: 6.00 Build 0)  -->
<svg version="1.1" id="Layer_1" xmlns="http://www.w3.org/2000/svg" xmlns:xlink="http://www.w3.org/1999/xlink" x="0px" y="0px"
	 viewBox="0 0 508 508" style="enable-background:new 0 0 508 508;" xml:space="preserve">
<circle style="fill:#36505F;" cx="254" cy="254" r="254"/>
<rect x="176.525" y="224.43" transform="matrix(-0.7071 0.7071 -0.7071 -0.7071 613.0313 253.9327)" style="fill:#BBC2C6;" width="154.799" height="58.999"/>
<g>
	<path style="fill:#E7E8E9;" d="M362.8,125.6v39l-35.4,22.2l-35.4-22v-39.2C278.4,137,269.8,155,269.8,175
		c0,34.6,25.8,62.6,57.6,62.6s57.6-28,57.6-62.6C385,155,376.4,137.2,362.8,125.6z"/>
	<path style="fill:#E7E8E9;" d="M145.2,382.4v-39l35.4-22.2l35.4,22.2v39c13.6-11.4,22.2-29.4,22.2-49.4c0-34.6-25.8-62.6-57.6-62.6
		S123,298.4,123,333C123,353,131.6,370.8,145.2,382.4z"/>
</g>
<rect x="209.955" y="137.15" transform="matrix(-0.7071 0.7071 -0.7071 -0.7071 528.046 218.5748)" style="fill:#EDF2EB;" width="17.6" height="162.998"/>
<polygon style="fill:#C9CACB;" points="164.6,142.2 142,164.8 154.8,167.4 167.4,155 "/>
<polygon style="fill:#EDF2EB;" points="142.2,164.6 164.8,142.2 137.4,125 125,137.4 "/>
<path style="fill:#FFCA0D;" d="M383,349.8c-11,11-22,22-33.2,33.2c-33.2-18.6-61.4-46.6-80-80c11-11,22-22,33.2-33.2
	C336.4,288.6,364.4,316.6,383,349.8z"/>
<rect x="262.927" y="282.429" transform="matrix(-0.7071 0.7071 -0.7071 -0.7071 691.015 286.2308)" style="fill:#B68E2E;" width="46.6" height="7.6"/>
<rect x="250.068" y="270.371" transform="matrix(-0.7071 0.7071 -0.7071 -0.7071 671.5591 278.1725)" style="fill:#FFCA0D;" width="56.199" height="15.6"/>
<g>
	
		<rect x="317.348" y="298.548" transform="matrix(-0.7071 0.7071 -0.7071 -0.7071 785.6795 349.0552)" style="fill:#B68E2E;" width="6.4" height="77.399"/>
	
		<rect x="333.99" y="282.033" transform="matrix(-0.7071 0.7071 -0.7071 -0.7071 802.4108 309.0963)" style="fill:#B68E2E;" width="6.4" height="77.399"/>
</g>
<g>
</g>
<g>
</g>
<g>
</g>
<g>
</g>
<g>
</g>
<g>
</g>
<g>
</g>
<g>
</g>
<g>
</g>
<g>
</g>
<g>
</g>
<g>
</g>
<g>
</g>
<g>
</g>
<g>
</g>
</svg>
