<?xml version="1.0" encoding="iso-8859-1"?>
<!-- Generator: Adobe Illustrator 19.0.0, SVG Export Plug-In . SVG Version: 6.00 Build 0)  -->
<svg version="1.1" id="Layer_1" xmlns="http://www.w3.org/2000/svg" xmlns:xlink="http://www.w3.org/1999/xlink" x="0px" y="0px"
	 viewBox="0 0 508 508" style="enable-background:new 0 0 508 508;" xml:space="preserve">
<circle style="fill:#FFD778;" cx="254" cy="254" r="254"/>
<path style="fill:#F7F8F9;" d="M254,91.6C197.6,174,123.2,144,123.2,144c0,5.2,0,27.8,0,110c0,132.6,130.8,162.4,130.8,162.4
	S384.8,386.6,384.8,254c0-82,0-104.6,0-110C384.8,144,310.4,174,254,91.6z"/>
<path style="fill:#E65336;" d="M366,259.4c0-1.8,0.2-3.6,0.2-5.4v-86.6c-4.2,0.4-8.8,0.8-13.8,0.8c-27,0-64.4-8.6-98.2-46.2l0,0
	v137.6H366V259.4z"/>
<g>
	<path style="fill:#F89F6A;" d="M254,259.4V397l0,0c20.8-6,108.8-37.6,112-137.6H254z"/>
	<path style="fill:#F89F6A;" d="M254,122c-33.8,37.6-71.2,46-98.2,46c-5,0-9.6-0.2-13.8-0.8V254c0,1.8,0,3.6,0.2,5.4h112V122H254z"
		/>
</g>
<path style="fill:#E65336;" d="M142,259.4c3.2,100,91.2,131.6,112,137.6V259.4H142z"/>
<g>
</g>
<g>
</g>
<g>
</g>
<g>
</g>
<g>
</g>
<g>
</g>
<g>
</g>
<g>
</g>
<g>
</g>
<g>
</g>
<g>
</g>
<g>
</g>
<g>
</g>
<g>
</g>
<g>
</g>
</svg>
