<?xml version="1.0" encoding="iso-8859-1"?>
<!-- Generator: Adobe Illustrator 19.0.0, SVG Export Plug-In . SVG Version: 6.00 Build 0)  -->
<svg version="1.1" id="Layer_1" xmlns="http://www.w3.org/2000/svg" xmlns:xlink="http://www.w3.org/1999/xlink" x="0px" y="0px"
	 viewBox="0 0 508 508" style="enable-background:new 0 0 508 508;" xml:space="preserve">
<circle style="fill:#6DB8E0;" cx="254" cy="254" r="254"/>
<path style="fill:#E65336;" d="M380.6,226.6c-5.8-26.6-21.6-50.2-44-67c2-13.8,6.6-30.6,16.6-34.4c0,0-35.4-5.2-55,14.4
	c-14-4.6-29.2-7.4-45.2-7.4c-70.6,0-127.8,50.2-130,112.6c-18.6-11.4-18.2-25.6-18.2-26.6c0.4-5-3.2-9.4-8-9.8
	c-5.2-0.6-9.4,3.2-10,8c-0.2,1.4-2.8,32.4,37.6,49.4c5.4,32,25.4,59.8,53.8,77.8V383h37.2v-23c12,3.2,24.6,5,37.6,5
	c14.6,0,28.4-2.2,41.6-6.2v24.4h37.2v-42c25.8-17.6,44-43.6,49.6-73.4h24v-41.2L380.6,226.6L380.6,226.6z"/>
<circle style="fill:#0B2C48;" cx="314.2" cy="227.4" r="6.6"/>
<g>
</g>
<g>
</g>
<g>
</g>
<g>
</g>
<g>
</g>
<g>
</g>
<g>
</g>
<g>
</g>
<g>
</g>
<g>
</g>
<g>
</g>
<g>
</g>
<g>
</g>
<g>
</g>
<g>
</g>
</svg>
